<svg width="512" height="512" viewBox="0 0 512 512" fill="none" xmlns="http://www.w3.org/2000/svg">
<g clip-path="url(#clip0_1187_2)">
<rect width="512" height="512" fill="white"/>
<rect width="512" height="512" fill="black"/>
<path d="M255.231 349.36V194.8H229.751V169.32H150.791V194.8H125.031V273.2H150.791V298.68H163.111V321.36H137.911V349.36H165.911V324.16H191.671V298.68H226.951V349.36H255.231ZM226.951 270.4H153.591V197.6H226.951V270.4Z" fill="white"/>
<path d="M282.809 346.768V311.44H288.633V305.616H295.033V311.44H300.921V323.024H306.041V311.44H311.929V305.616H318.393V311.44H324.153V346.768H317.753V312.08H312.569V323.6H306.681V341.008H300.281V323.6H294.393V312.08H289.273V346.768H282.809ZM337.695 346.768V341.008H331.871V311.44H337.695V305.616H355.743V311.44H361.631V323.6H355.103V312.08H338.335V340.368H355.103V328.72H361.631V341.008H355.743V346.768H337.695ZM369.371 346.768V311.44H375.195V305.616H393.243V311.44H399.131V329.36H393.243V335.184H375.835V346.768H369.371ZM375.835 328.72H392.603V312.08H375.835V328.72Z" fill="white"/>
</g>
<defs>
<clipPath id="clip0_1187_2">
<rect width="512" height="512" fill="white"/>
</clipPath>
</defs>
</svg>
